<?xml version="1.0" standalone="no"?>
<!DOCTYPE svg PUBLIC "-//W3C//DTD SVG 20010904//EN"
 "http://www.w3.org/TR/2001/REC-SVG-20010904/DTD/svg10.dtd">
<svg version="1.0" xmlns="http://www.w3.org/2000/svg"
 width="400.000000pt" height="400.000000pt" viewBox="0 0 400.000000 400.000000"
 preserveAspectRatio="xMidYMid meet">
<metadata>
Created by potrace 1.11, written by Peter Selinger 2001-2013
</metadata>
<g transform="translate(0.000000,400.000000) scale(0.100000,-0.100000)"
fill="#000000" stroke="none">
<path d="M1978 3836 c-3 -16 -1 -42 4 -57 11 -31 -8 -111 -42 -184 -35 -74
-49 -146 -35 -185 27 -78 26 -99 -1 -117 -22 -14 -29 -14 -46 -4 -17 11 -23
10 -37 -4 -15 -16 -14 -17 6 -11 18 6 22 3 20 -14 -1 -21 -17 -28 -17 -7 -1 7
-6 5 -14 -6 -11 -15 -15 -15 -25 -3 -9 11 -9 15 1 20 7 3 4 4 -8 3 -11 -1 -28
4 -37 12 -10 8 -17 9 -17 3 0 -6 -13 -25 -29 -43 -29 -32 -30 -32 -67 -17 -21
9 -39 19 -41 24 -2 5 17 31 42 59 25 27 45 53 45 58 0 4 9 6 20 2 15 -5 18 -3
14 8 -3 9 2 29 10 46 19 35 21 102 4 119 -8 8 -8 15 2 27 7 9 8 15 2 15 -5 0
-13 24 -17 53 -6 42 -9 48 -16 30 -4 -12 -4 -36 1 -54 14 -49 6 -45 -20 11
-13 28 -29 50 -36 50 -7 0 -24 12 -38 27 -14 15 -27 25 -30 22 -3 -3 9 -20 27
-39 23 -25 26 -32 12 -26 -11 5 -29 11 -40 13 l-20 5 20 -15 c11 -9 25 -17 30
-17 6 0 23 -12 39 -26 23 -22 27 -32 21 -58 -4 -17 -9 -56 -12 -86 -5 -49 -10
-59 -51 -98 -58 -56 -92 -78 -100 -66 -4 6 -19 26 -33 45 -32 42 -47 98 -54
211 -5 76 -3 88 12 97 10 6 12 11 6 11 -9 0 -11 10 -6 32 4 22 3 29 -6 24 -6
-4 -9 -12 -6 -17 4 -5 2 -9 -3 -9 -19 0 -28 -67 -21 -159 7 -81 14 -106 49
-179 22 -47 39 -85 38 -86 -42 -16 -54 -52 -33 -101 8 -18 7 -19 -8 -6 -15 12
-17 11 -17 -5 0 -16 -2 -16 -9 -4 -6 8 -8 18 -5 22 3 4 0 17 -7 29 -9 17 -8
20 2 14 9 -6 11 -3 6 9 -4 10 -7 25 -7 33 0 13 -3 13 -15 3 -8 -7 -15 -21 -15
-31 0 -15 -8 -19 -40 -19 -31 0 -38 -3 -34 -15 4 -10 -3 -18 -21 -25 -28 -11
-49 -5 -40 11 12 18 -5 8 -30 -18 -14 -15 -25 -33 -25 -39 0 -6 -12 -21 -26
-35 -28 -26 -57 -86 -50 -103 3 -6 5 -6 5 2 1 7 13 25 27 40 19 20 23 21 16 7
-13 -27 -3 -85 19 -114 11 -13 19 -29 19 -35 0 -21 65 -55 136 -72 47 -11 75
-24 84 -37 11 -18 10 -19 -11 -14 -27 7 -59 -8 -59 -28 0 -18 -17 -20 -23 -2
-7 20 -37 -12 -38 -42 -1 -25 -2 -25 -8 4 -7 29 -7 29 -19 9 -10 -19 -16 -21
-49 -14 -21 5 -39 7 -42 5 -2 -3 -17 7 -33 20 -16 14 -37 25 -46 26 -9 0 -29
3 -44 5 -64 11 -123 -58 -101 -116 9 -25 7 -32 -16 -54 -15 -14 -37 -26 -48
-26 -28 0 -53 -10 -53 -21 0 -5 11 -9 24 -9 36 0 55 -10 49 -26 -4 -10 -23
-14 -69 -14 -65 0 -76 7 -50 33 25 24 -9 44 -41 24 -29 -18 -10 14 24 42 25
20 32 31 21 31 -19 0 -78 -47 -78 -63 0 -19 -53 -102 -58 -89 -2 7 2 19 8 28
7 8 11 17 8 19 -3 3 -16 -10 -29 -30 -13 -19 -28 -35 -32 -35 -5 0 -5 -5 -1
-12 4 -7 3 -8 -5 -4 -6 4 -18 1 -26 -8 -19 -18 -19 -21 2 -42 16 -16 16 -17 1
-11 -23 8 -29 -23 -9 -47 12 -14 12 -17 2 -11 -10 5 -12 4 -7 -3 4 -7 14 -12
22 -12 8 0 14 -8 15 -17 0 -11 3 -13 6 -5 2 6 10 12 17 12 7 0 22 9 34 21 21
19 23 19 29 2 4 -10 21 -29 37 -43 77 -63 131 -120 114 -120 -10 0 -18 -4 -18
-9 0 -5 -15 -12 -34 -15 -19 -4 -50 -18 -70 -31 -20 -14 -45 -25 -55 -25 -22
0 -33 21 -20 41 14 22 11 33 -5 19 -24 -19 -34 56 -13 92 13 22 13 28 3 28
-21 0 -38 -52 -41 -122 -1 -35 -11 -81 -21 -103 l-18 -40 -6 40 c-6 39 -6 38
-11 -20 -3 -33 -3 -64 0 -70 3 -5 6 -19 7 -30 0 -11 8 -44 17 -72 9 -29 13
-53 9 -53 -20 0 -73 43 -87 70 -24 46 -17 128 17 207 33 80 35 90 8 45 -82
-133 -72 -259 24 -322 l37 -24 -48 -22 c-36 -17 -42 -23 -25 -23 34 -1 19 -17
-47 -51 -57 -28 -59 -29 -112 -15 -89 24 -112 78 -64 149 22 32 23 35 5 26
-24 -13 -50 -61 -50 -92 0 -36 37 -88 73 -103 39 -16 144 -6 157 15 4 7 12 10
18 6 6 -3 33 12 61 34 69 55 84 54 55 -2 -9 -16 -11 -28 -6 -24 5 3 12 -3 15
-14 3 -11 1 -23 -4 -26 -5 -3 -7 -10 -3 -15 3 -5 2 -8 -3 -7 -4 2 -9 -1 -11
-7 -2 -5 -19 -18 -38 -28 -39 -20 -38 -19 -17 -107 5 -19 6 -55 2 -80 -4 -25
-2 -53 3 -64 7 -13 7 -16 -1 -12 -7 5 -9 1 -5 -8 3 -9 11 -13 17 -9 6 3 7 1 3
-5 -10 -17 20 -69 43 -75 11 -2 21 -15 23 -28 1 -12 10 -25 18 -27 13 -4 13
-3 2 10 -9 12 -10 18 -2 23 14 9 40 -13 51 -42 11 -31 34 -29 66 5 17 18 27
23 30 15 7 -19 21 -16 28 7 4 11 11 18 16 14 6 -3 16 0 24 6 24 20 32 3 27
-52 -6 -71 -16 -86 -59 -94 -68 -13 -138 -51 -198 -108 l-59 -56 -21 25 c-33
40 -67 37 -129 -10 -36 -27 -52 -33 -75 -29 -38 8 -127 -18 -229 -67 l-82 -40
0 -374 1 -375 2000 0 1999 0 0 109 0 109 -38 49 c-66 82 -233 235 -322 295
-47 31 -104 75 -128 98 -36 36 -48 41 -80 39 -20 -1 -59 -1 -86 0 -44 1 -47 3
-35 17 9 11 15 53 17 125 3 78 7 107 16 102 6 -4 4 2 -4 12 -14 17 -13 18 5
11 75 -31 149 -20 180 28 19 29 13 77 -12 98 -15 12 -15 11 -5 -9 16 -29 4
-80 -22 -98 -11 -8 -42 -15 -68 -15 -56 0 -78 23 -78 82 0 36 14 52 22 26 3
-9 6 -9 11 -1 4 6 0 18 -8 26 -24 25 -16 77 12 77 13 0 13 3 3 16 -8 8 -9 14
-4 13 5 -1 22 -1 38 0 21 1 27 5 22 16 -3 10 3 17 22 22 29 7 75 50 97 92 15
28 57 69 122 120 24 18 55 55 70 82 16 27 31 49 35 49 3 0 4 9 1 20 -6 23 -33
27 -33 5 0 -8 -5 -15 -12 -15 -6 0 -9 -2 -6 -5 7 -7 -82 -95 -96 -95 -7 0 -16
-4 -22 -9 -5 -5 -32 -19 -60 -30 -52 -20 -52 -20 -57 0 -3 11 -1 34 4 52 5 19
5 35 -1 41 -5 5 -11 -1 -16 -18 -3 -14 -9 -26 -13 -25 -3 0 -21 18 -39 39 -33
38 -33 39 -13 57 37 34 48 41 95 62 52 24 61 45 54 119 -4 42 -36 128 -44 119
-2 -1 3 -27 11 -57 24 -88 20 -114 -19 -144 -19 -14 -41 -26 -49 -26 -9 0 -17
-3 -20 -7 -2 -5 -2 -1 1 7 2 8 6 62 7 120 2 69 0 95 -5 75 -9 -30 -9 -30 -7 6
2 42 -16 69 -45 69 -10 0 -16 5 -13 10 3 6 -1 10 -9 10 -9 0 -16 8 -16 18 0 9
-3 27 -6 38 -4 15 4 32 26 58 18 20 37 36 42 36 5 0 17 9 26 19 35 41 134 31
185 -17 13 -13 35 -46 48 -75 38 -85 118 -223 141 -243 18 -17 18 -14 -5 26
-14 25 -30 64 -37 87 -7 23 -17 40 -21 37 -14 -8 -11 15 3 30 18 19 44 -26 79
-134 20 -62 28 -77 28 -54 1 48 -28 133 -65 191 -19 29 -34 59 -34 66 0 7 14
25 30 40 29 28 41 67 20 67 -21 0 -8 16 38 47 26 18 63 39 82 47 19 8 29 15
21 16 -8 0 -52 -18 -99 -41 -46 -22 -87 -38 -90 -34 -3 3 4 8 17 12 13 3 20
11 17 19 -3 7 9 22 27 33 42 27 22 27 -22 0 -28 -17 -32 -23 -20 -31 11 -8 10
-9 -4 -4 -11 4 -29 -2 -44 -14 -48 -38 -132 -21 -208 41 -27 22 -60 57 -72 77
-13 21 -23 33 -23 27 0 -5 -5 -3 -10 5 -6 9 -10 10 -10 3 0 -8 -21 -4 -65 12
-36 14 -80 25 -98 25 -30 1 -31 1 -13 15 21 16 40 20 32 7 -2 -4 12 -8 32 -9
55 -2 72 -5 66 -14 -2 -4 0 -10 6 -14 12 -7 14 34 2 51 -9 15 -80 55 -107 60
-11 3 -42 7 -68 11 -32 4 -46 10 -43 18 2 7 -4 19 -15 28 -10 9 -19 29 -19 43
0 21 3 24 13 16 10 -9 12 -4 9 23 -7 63 3 82 49 90 32 6 47 3 68 -12 43 -32
58 -36 26 -8 l-30 27 48 -6 c66 -8 109 -30 159 -82 23 -24 44 -42 46 -39 3 3
-77 115 -82 115 -1 0 -25 9 -55 20 -29 10 -92 22 -140 26 -47 4 -98 13 -113
20 -15 8 -48 13 -75 12 -26 -1 -57 2 -67 7 -14 6 -17 5 -12 -3 4 -7 3 -12 -2
-12 -13 0 -23 26 -16 43 2 7 20 25 39 41 19 16 35 35 35 43 0 7 5 12 11 10 6
-1 15 8 20 21 7 19 5 24 -18 33 -19 7 -28 6 -34 -2 -11 -19 -54 -2 -68 27 -13
30 -9 39 50 92 33 29 36 36 29 66 -6 28 -47 96 -57 96 -2 0 6 -17 17 -37 27
-50 25 -63 -9 -101 -31 -33 -56 -41 -64 -19 -3 7 -6 5 -6 -5 -1 -12 -9 -18
-27 -18 -25 0 -25 1 -20 53 7 57 -4 80 -41 89 -26 7 -42 -9 -19 -18 9 -3 16
-16 16 -29 0 -24 -37 -69 -57 -71 -7 -1 -22 -2 -34 -2 -11 -1 -18 -6 -15 -11
3 -4 -6 -6 -20 -3 -15 3 -32 -2 -44 -13 -10 -9 -25 -15 -32 -12 -8 3 -5 6 7 8
11 1 -9 5 -45 8 -51 5 -64 9 -61 21 2 8 6 30 9 48 l4 33 35 -21 c20 -11 37
-19 40 -17 7 7 -48 47 -65 47 -12 0 -11 5 6 20 12 12 28 20 35 19 25 -5 92 15
103 30 20 27 -1 66 -87 159 -36 37 -49 40 -56 11 -4 -15 -8 -17 -14 -8 -6 10
-11 10 -23 0 -9 -8 -16 -11 -16 -7 0 10 -84 -26 -107 -46 -21 -20 -21 -20 -28
4 -13 48 -38 97 -46 92 -5 -3 -11 1 -14 8 -6 16 -51 22 -60 8 -3 -5 -13 -7
-23 -4 -14 5 -14 4 -3 -4 12 -8 12 -14 3 -25 -15 -18 -3 -30 15 -15 31 25 49
-43 20 -79 -6 -9 -2 -19 14 -34 13 -11 18 -18 12 -14 -7 3 -13 1 -13 -4 0 -6
-6 -11 -14 -11 -7 0 -19 -13 -25 -28 -9 -22 -19 -29 -42 -30 -16 0 -29 3 -29
8 0 9 31 24 44 21 11 -3 26 19 26 38 0 11 -4 10 -13 -4 -8 -10 -19 -15 -25
-11 -7 4 -12 0 -12 -10 0 -10 -3 -15 -6 -12 -3 3 0 24 6 45 7 21 10 50 8 63
-4 24 -5 24 -13 5 -13 -29 -35 -50 -35 -33 0 17 -34 -32 -35 -52 -1 -8 -5 -25
-9 -37 -5 -16 -1 -25 16 -37 18 -13 19 -16 5 -16 -9 0 -17 4 -17 9 0 5 -15 12
-32 16 -47 12 -53 11 -50 -2 1 -7 -5 -13 -14 -13 -8 0 -12 5 -8 11 3 6 2 14
-4 18 -7 4 1 21 23 45 28 32 32 42 24 58 -7 12 -17 17 -26 14 -21 -8 -52 26
-65 71 -8 29 -5 43 15 86 13 29 30 81 37 117 20 111 9 118 116 -75 19 -33 34
-68 34 -77 0 -10 4 -18 9 -18 18 0 -11 73 -64 159 -50 81 -63 112 -83 206 -8
39 -8 40 -14 11z m-318 -196 c0 -5 -2 -10 -4 -10 -3 0 -8 5 -11 10 -3 6 -1 10
4 10 6 0 11 -4 11 -10z m46 -134 c-7 -38 -6 -40 8 -21 15 20 15 19 16 -6 0
-32 -28 -91 -41 -84 -5 4 -9 0 -9 -7 0 -7 -23 -35 -50 -61 -28 -27 -50 -53
-50 -58 0 -11 -11 -11 -28 -1 -9 6 -6 16 15 38 15 16 30 28 35 27 4 -2 14 12
22 31 8 19 21 38 29 43 17 9 26 41 34 110 3 25 9 40 15 37 6 -4 7 -23 4 -48z
m-39 -23 c-3 -10 -5 -4 -5 12 0 17 2 24 5 18 2 -7 2 -21 0 -30z m910 -130 c-6
-9 -5 -18 3 -28 10 -11 9 -18 -3 -30 -26 -25 -47 -19 -47 14 0 17 5 33 11 36
6 4 7 19 4 37 l-7 29 24 -23 c17 -16 21 -27 15 -35z m-67 -13 c0 -25 -6 -42
-15 -48 -9 -4 -17 -17 -17 -28 -2 -16 -8 -19 -38 -16 -31 3 -41 -1 -68 -32
-18 -20 -32 -42 -32 -49 0 -7 12 0 25 16 13 15 28 27 32 26 4 -1 10 0 13 1 21
8 50 5 50 -7 0 -7 -6 -13 -14 -13 -8 0 -27 -12 -43 -27 -17 -16 -36 -28 -44
-28 -8 0 -15 -10 -17 -23 -2 -13 -9 -21 -15 -19 -17 5 -9 66 14 103 25 42 24
51 -3 28 l-23 -19 19 23 c11 12 30 22 43 22 17 0 23 6 23 23 0 14 -3 18 -8 10
-8 -12 -52 -14 -52 -2 0 4 -15 10 -32 14 -18 4 -27 9 -21 12 7 2 27 0 45 -5
18 -6 56 -7 83 -3 49 7 49 7 18 15 -32 7 -33 8 -15 31 9 12 20 21 24 19 3 -2
17 0 30 5 36 15 38 14 38 -29z m115 -6 c9 -15 12 -23 6 -20 -6 4 -11 0 -11 -8
0 -22 -16 -20 -24 2 -3 9 -9 24 -13 32 -6 13 -4 13 12 0 17 -14 18 -13 12 3
-9 25 -2 21 18 -9z m-665 -4 c8 -5 11 -12 7 -16 -4 -4 -15 0 -24 9 -18 18 -8
23 17 7z m-45 -69 c3 -5 1 -12 -5 -16 -5 -3 -10 1 -10 9 0 18 6 21 15 7z
m-410 -61 c3 0 2 7 -2 16 -5 14 -3 14 15 3 17 -10 19 -17 10 -32 -8 -16 -12
-17 -19 -6 -7 11 -9 10 -9 -3 0 -10 -4 -18 -10 -18 -5 0 -10 9 -10 19 0 11 -3
28 -7 38 -7 17 -6 17 11 1 9 -10 19 -18 21 -18z m-138 -12 c-3 -8 -6 -5 -6 6
-1 11 2 17 5 13 3 -3 4 -12 1 -19z m582 -29 c-19 -12 -24 -2 -8 17 9 11 14 13
17 4 3 -7 -2 -16 -9 -21z m-730 -15 c-12 -13 -24 -22 -27 -20 -7 8 30 56 40
50 5 -3 -1 -17 -13 -30z m116 17 c-3 -6 1 -25 9 -43 12 -28 14 -29 15 -10 1
12 6 22 11 22 12 0 12 -2 1 -33 -7 -17 -5 -42 4 -77 8 -30 11 -72 8 -100 -5
-43 -8 -49 -33 -52 -70 -10 -140 53 -148 133 -6 61 12 106 52 130 17 10 27 19
23 19 -5 0 -5 5 -2 10 3 6 20 10 36 10 17 0 28 -4 24 -9z m35 -6 c0 -8 -2 -15
-4 -15 -2 0 -6 7 -10 15 -3 8 -1 15 4 15 6 0 10 -7 10 -15z m285 5 c3 -5 -1
-10 -10 -10 -9 0 -13 5 -10 10 3 6 8 10 10 10 2 0 7 -4 10 -10z m-43 -30 c18
-11 48 -20 66 -20 37 0 40 -9 11 -34 -17 -14 -20 -25 -15 -54 3 -23 2 -30 -2
-18 -7 17 -9 17 -15 4 -5 -14 -11 -15 -46 -4 -22 6 -46 17 -52 23 -15 15 -14
90 2 109 14 18 12 18 51 -6z m494 -56 c-9 -51 -10 -52 -22 -29 -12 24 -18 49
-15 70 0 6 11 11 24 11 23 2 23 0 13 -52z m804 -46 c0 -6 -7 -5 -15 2 -8 7
-15 17 -15 22 0 6 7 5 15 -2 8 -7 15 -17 15 -22z m-130 4 c0 -17 -13 -22 -27
-10 -11 8 -17 7 -27 -8 -8 -10 -18 -15 -23 -11 -4 5 1 15 11 23 21 15 66 19
66 6z m-172 -14 c68 -2 72 -3 72 -25 0 -28 -40 -34 -41 -5 0 9 -3 12 -5 5 -3
-7 -11 -10 -19 -7 -7 3 -16 0 -20 -5 -3 -6 -10 -9 -15 -6 -4 3 -29 1 -54 -4
-37 -7 -46 -6 -46 6 0 28 21 54 39 48 9 -3 49 -6 89 -7z m277 -8 c3 -5 1 -10
-4 -10 -6 0 -11 5 -11 10 0 6 2 10 4 10 3 0 8 -4 11 -10z m-125 -34 c0 -9 -9
-14 -20 -13 -22 1 -27 13 -7 20 21 9 27 7 27 -7z m-50 -16 c0 -5 -5 -10 -11
-10 -5 0 -7 5 -4 10 3 6 8 10 11 10 2 0 4 -4 4 -10z m-53 -14 c4 -8 17 -15 28
-18 11 -2 20 -11 20 -20 0 -9 11 -28 24 -42 24 -25 17 -38 -7 -14 -9 9 -12 7
-12 -9 0 -12 6 -23 13 -26 6 -2 9 -8 5 -12 -13 -14 -38 16 -33 39 6 23 -50 96
-73 96 -7 0 -12 5 -12 10 0 15 38 12 47 -4z m-724 -76 c-3 -10 -11 -24 -19
-31 -12 -9 -12 -6 -3 20 12 34 30 43 22 11z m418 -7 c13 -16 12 -17 -3 -4 -10
7 -18 15 -18 17 0 8 8 3 21 -13z m599 7 c0 -5 -4 -10 -10 -10 -5 0 -10 5 -10
10 0 6 5 10 10 10 6 0 10 -4 10 -10z m-40 -26 c0 -16 -9 -18 -29 -5 -7 5 -11
14 -7 19 9 15 36 4 36 -14z m-832 -54 c13 -14 28 -24 33 -23 5 2 14 -7 20 -20
15 -27 29 -98 18 -92 -4 3 -11 24 -15 48 -4 23 -9 36 -11 29 -3 -7 -17 4 -34
27 -15 22 -37 45 -48 51 -12 6 -26 20 -32 33 -11 21 -10 21 17 -3 15 -14 39
-36 52 -50z m-728 50 c-8 -5 -19 -10 -25 -10 -5 0 -3 5 5 10 8 5 20 10 25 10
6 0 3 -5 -5 -10z m1068 -10 c12 -12 22 -24 22 -27 0 -3 -8 1 -18 10 -10 10
-29 17 -43 17 -19 0 -21 2 -9 10 21 13 23 13 48 -10z m522 16 c0 -3 -4 -8 -10
-11 -5 -3 -10 -1 -10 4 0 6 5 11 10 11 6 0 10 -2 10 -4z m-776 -13 c4 -5 11
-8 15 -8 4 0 27 -10 51 -22 25 -12 56 -26 70 -31 21 -8 22 -11 9 -17 -19 -7
-138 45 -158 69 -13 16 -1 23 13 9z m327 -70 c13 -16 12 -17 -3 -4 -17 13 -22
21 -14 21 2 0 10 -8 17 -17z m39 -8 c11 -13 10 -14 -4 -9 -9 3 -16 10 -16 15
0 13 6 11 20 -6z m546 -7 c2 -4 -5 -16 -17 -26 -17 -16 -19 -24 -10 -40 6 -12
11 -27 10 -34 0 -7 -4 -4 -9 7 -7 18 -8 19 -15 3 -4 -10 -15 -18 -25 -18 -17
0 -18 -2 -4 -27 18 -37 18 -59 -2 -67 -12 -5 -15 -2 -10 9 3 9 2 14 -3 11 -7
-5 -61 64 -61 78 0 3 10 3 23 1 21 -4 21 -3 2 8 -26 16 -86 79 -80 85 2 3 22
-3 44 -11 37 -15 39 -15 44 3 2 10 15 20 28 23 34 6 80 4 85 -5z m65 -18 c6 0
6 -7 1 -17 -5 -10 -12 -38 -15 -62 -7 -59 -27 -70 -43 -24 -7 19 -11 40 -9 47
22 61 26 68 41 62 9 -3 20 -6 25 -6z m-571 -20 c0 -5 -2 -10 -4 -10 -3 0 -8 5
-11 10 -3 6 -1 10 4 10 6 0 11 -4 11 -10z m-1520 -10 c0 -6 10 -15 23 -20 20
-8 19 -9 -9 -9 -30 -1 -51 19 -37 33 10 10 23 7 23 -4z m-43 -23 c4 -8 17 -19
28 -25 19 -11 19 -11 -5 -12 -28 0 -50 16 -50 37 0 17 17 17 27 0z m1632 -4
c-60 -72 -79 -93 -79 -86 0 14 41 77 58 91 24 18 37 15 21 -5z m8 -27 c-8 -22
23 -29 44 -10 10 9 24 14 31 12 7 -3 -3 -12 -21 -21 -18 -9 -37 -14 -42 -11
-5 3 -12 -1 -15 -10 -3 -8 -12 -12 -19 -10 -11 4 -10 11 3 35 18 30 28 39 19
15z m-417 -65 c0 -28 -6 -55 -16 -67 -15 -19 -15 -19 -10 1 3 11 6 43 8 72 4
63 18 59 18 -6z m-1140 -11 l35 0 -30 -20 c-36 -24 -52 -26 -35 -5 11 13 8 15
-13 15 -14 0 -29 5 -33 12 -5 8 0 9 17 5 13 -4 40 -7 59 -7z m-65 -58 c-7 -7
-54 33 -55 46 0 7 13 1 29 -15 16 -15 27 -30 26 -31z m-270 8 c-20 -23 -29
-21 -19 4 3 9 13 16 22 16 13 0 12 -3 -3 -20z m2395 10 c0 -5 -4 -10 -10 -10
-5 0 -10 5 -10 10 0 6 5 10 10 10 6 0 10 -4 10 -10z m-620 -10 c0 -5 -5 -10
-11 -10 -5 0 -7 5 -4 10 3 6 8 10 11 10 2 0 4 -4 4 -10z m562 -22 c-9 -9 -12
-7 -12 12 0 19 3 21 12 12 9 -9 9 -15 0 -24z m-1086 -13 c18 -13 18 -14 -4 -8
-12 3 -25 9 -28 14 -8 14 10 11 32 -6z m1196 8 c-13 -3 -33 -14 -45 -26 -16
-16 -22 -17 -25 -7 -7 19 27 40 62 39 25 -1 27 -3 8 -6z m-2327 -23 c19 -8 19
-9 -2 -9 -12 -1 -25 4 -28 9 -7 12 2 12 30 0z m340 -2 c15 -44 10 -53 -27 -56
-29 -2 -39 1 -48 18 -6 12 -9 28 -6 36 7 18 75 19 81 2z m-388 -4 c-3 -3 -12
-4 -19 -1 -8 3 -5 6 6 6 11 1 17 -2 13 -5z m2213 -23 c-5 -11 -16 -23 -23 -28
-19 -12 -49 -14 -42 -3 3 5 12 10 19 10 7 0 21 9 31 20 23 25 29 26 15 1z
m-2398 2 c-6 -2 -10 -9 -7 -13 3 -5 1 -11 -5 -15 -5 -3 -10 0 -10 8 0 17 10
27 24 26 6 0 5 -3 -2 -6z m305 -15 c-3 -8 -6 -5 -6 6 -1 11 2 17 5 13 3 -3 4
-12 1 -19z m-197 1 c0 -7 -25 -19 -41 -19 -4 0 -6 6 -3 14 5 14 44 18 44 5z
m50 1 c-20 -13 -43 -13 -35 0 3 6 16 10 28 10 18 0 19 -2 7 -10z m-193 -16
c-3 -3 -12 -4 -19 -1 -8 3 -5 6 6 6 11 1 17 -2 13 -5z m197 -9 c-23 -17 -11
-20 19 -3 29 15 89 19 104 6 7 -6 13 -7 14 -2 0 5 4 -1 9 -12 6 -16 15 -20 34
-17 15 3 37 -2 52 -12 21 -14 28 -14 42 -3 13 9 12 7 -2 -10 -11 -12 -14 -22
-8 -22 7 0 12 -4 12 -10 0 -17 -18 -11 -40 12 -11 12 -30 23 -42 25 -20 3 -20
3 3 -15 13 -11 34 -24 46 -31 16 -8 22 -18 19 -34 -3 -12 -5 -30 -5 -39 -1
-11 -6 -15 -16 -12 -8 4 -15 1 -15 -5 0 -14 -132 -15 -198 0 -49 10 -83 44
-68 67 3 6 2 13 -4 17 -5 3 -10 -1 -10 -9 0 -9 -7 -16 -15 -16 -8 0 -15 4 -15
8 0 5 -9 19 -20 32 -19 22 -19 23 1 51 25 36 43 37 37 4 -7 -34 1 -32 13 4 9
27 20 33 63 40 6 0 1 -6 -10 -14z m1211 5 c-3 -5 -12 -10 -18 -10 -7 0 -6 4 3
10 19 12 23 12 15 0z m584 6 c-2 -2 -15 -9 -29 -15 -24 -11 -24 -11 -6 3 16
13 49 24 35 12z m-1474 -36 c3 -6 -1 -7 -9 -4 -18 7 -21 14 -7 14 6 0 13 -4
16 -10z m2140 -50 c9 15 50 5 82 -19 l23 -19 -23 -6 c-12 -3 -30 -6 -41 -6
-10 0 -39 -11 -65 -24 -47 -23 -48 -23 -60 -4 -22 36 46 109 70 75 4 -5 10 -4
14 3z m95 -84 c0 -15 -48 -35 -100 -41 -41 -5 -29 12 24 36 49 22 76 24 76 5z
m-295 -6 c-3 -5 -11 -10 -16 -10 -6 0 -7 5 -4 10 3 6 11 10 16 10 6 0 7 -4 4
-10z m-2225 -45 c16 -9 19 -14 9 -15 -8 0 -24 7 -35 15 -24 18 -7 19 26 0z
m306 -11 c-3 -9 -9 -27 -12 -41 l-7 -26 -14 27 c-13 25 -13 29 4 42 24 18 36
17 29 -2z m2204 2 c0 -10 -69 -46 -89 -46 -13 0 -29 -7 -37 -15 -9 -8 -23 -15
-32 -15 -12 0 -10 5 8 17 14 9 27 20 30 24 14 19 120 50 120 35z m-2415 -26
c19 -8 19 -9 -2 -9 -12 -1 -25 4 -28 9 -7 12 2 12 30 0z m2435 2 c0 -5 -11
-14 -25 -20 -28 -13 -35 1 -7 17 21 13 32 14 32 3z m25 -32 c-3 -5 -12 -10
-18 -10 -7 0 -6 4 3 10 19 12 23 12 15 0z m375 -25 c-18 -19 -26 -22 -32 -13
-12 20 -9 28 11 28 11 0 23 5 26 11 4 6 10 8 13 5 3 -4 -5 -17 -18 -31z
m-2182 8 c-10 -2 -28 -2 -40 0 -13 2 -5 4 17 4 22 1 32 -1 23 -4z m-741 -49
c-3 -3 -12 -4 -19 -1 -8 3 -5 6 6 6 11 1 17 -2 13 -5z m-17 -34 c10 0 21 5 23
10 3 6 4 5 3 -2 -5 -25 -127 -51 -140 -30 -3 5 8 16 25 26 26 15 30 16 35 2 8
-21 25 -10 18 12 -5 16 -5 16 6 0 6 -10 19 -18 30 -18z m-198 -70 c-2 -16 -11
-35 -19 -42 -14 -11 -15 -6 -10 45 3 31 1 57 -4 57 -5 0 -9 6 -9 13 1 6 11 -1
24 -16 15 -19 21 -37 18 -57z m678 70 c0 -5 -4 -10 -10 -10 -5 0 -10 5 -10 10
0 6 5 10 10 10 6 0 10 -4 10 -10z m2440 -31 c0 -5 -4 -9 -10 -9 -5 0 -10 7
-10 16 0 8 5 12 10 9 6 -3 10 -10 10 -16z m-2820 -9 c12 -8 10 -10 -10 -11
-14 0 -33 -2 -42 -4 -25 -5 -22 4 5 15 29 11 29 11 47 0z m-198 -30 c2 -7 14
-7 36 -1 39 12 41 4 5 -26 l-28 -22 25 5 c21 4 22 3 5 -4 -17 -8 -44 -9 -87
-3 -5 1 -8 15 -8 31 0 25 4 30 24 30 13 0 26 -5 28 -10z m192 -8 c2 -4 -14 -9
-37 -9 -30 -2 -37 1 -27 7 18 12 57 13 64 2z m2472 -59 c-3 -7 -1 -13 4 -13
10 0 2 -61 -9 -70 -4 -3 -16 -18 -28 -33 -21 -28 -22 -28 -33 -7 -26 49 23
177 56 149 8 -7 13 -18 10 -26z m-2723 -8 c-3 -9 -8 -14 -10 -11 -3 3 -2 9 2
15 9 16 15 13 8 -4z m2558 -12 c0 -15 2 -15 9 2 8 19 8 19 18 -5 7 -16 11 -19
11 -9 1 9 10 19 21 22 19 5 21 2 15 -36 -4 -23 -2 -54 4 -69 9 -23 7 -29 -7
-37 -25 -13 -68 -2 -97 25 -14 13 -25 20 -25 16 -1 -4 -7 5 -15 20 -8 15 -12
34 -9 42 10 27 24 18 25 -16 0 -28 2 -30 9 -13 5 11 11 32 14 48 7 30 26 37
27 10z m-1309 -35 c21 -17 36 -64 17 -53 -8 5 -3 -3 10 -18 12 -14 20 -30 17
-36 -4 -5 2 -16 12 -23 10 -7 21 -23 24 -35 6 -22 4 -23 -35 -17 -125 16 -177
27 -177 35 0 14 99 159 108 159 5 0 15 -6 24 -12z m1504 -136 c-23 -23 -26
-12 -7 31 16 37 16 38 19 11 2 -15 -3 -34 -12 -42z m-28 33 c-6 -13 -15 -22
-19 -19 -9 5 11 44 23 44 4 0 3 -11 -4 -25z m-31 -41 c9 -24 -10 -36 -40 -25
-18 7 -25 15 -21 26 8 20 53 19 61 -1z m53 -30 c0 -2 -9 -4 -21 -4 -11 0 -18
4 -14 10 5 8 35 3 35 -6z m-2855 -124 c3 -5 -1 -10 -10 -10 -9 0 -13 5 -10 10
3 6 8 10 10 10 2 0 7 -4 10 -10z m15 -24 c0 -3 -4 -8 -10 -11 -5 -3 -10 -1
-10 4 0 6 5 11 10 11 6 0 10 -2 10 -4z m2860 -50 c0 -5 -7 -1 -15 10 -8 10
-14 24 -14 29 0 6 6 1 14 -9 8 -11 15 -24 15 -30z m-2877 9 c4 -8 2 -17 -3
-20 -6 -4 -10 3 -10 14 0 25 6 27 13 6z m3034 -21 c-3 -3 -12 -4 -19 -1 -8 3
-5 6 6 6 11 1 17 -2 13 -5z m-197 -59 c7 -8 8 -15 2 -15 -5 0 -15 7 -22 15 -7
8 -8 15 -2 15 5 0 15 -7 22 -15z m180 1 c0 -2 -7 -7 -16 -10 -8 -3 -12 -2 -9
4 6 10 25 14 25 6z m-115 -64 c-3 -3 -16 5 -28 17 l-22 23 28 -17 c15 -10 25
-20 22 -23z m-60 3 c20 -16 25 -24 14 -25 -14 0 -59 34 -59 45 0 11 17 3 45
-20z"/>
<path d="M3101 2664 c0 -11 3 -14 6 -6 3 7 2 16 -1 19 -3 4 -6 -2 -5 -13z"/>
<path d="M3100 2625 c0 -8 2 -15 4 -15 2 0 6 7 10 15 3 8 1 15 -4 15 -6 0 -10
-7 -10 -15z"/>
<path d="M775 2350 c-3 -6 1 -7 9 -4 18 7 21 14 7 14 -6 0 -13 -4 -16 -10z"/>
<path d="M820 2256 c0 -2 8 -10 18 -17 15 -13 16 -12 3 4 -13 16 -21 21 -21
13z"/>
<path d="M1427 3599 c4 -13 8 -18 11 -10 2 7 -1 18 -6 23 -8 8 -9 4 -5 -13z"/>
<path d="M1356 3595 c-9 -26 -7 -32 5 -12 6 10 9 21 6 23 -2 3 -7 -2 -11 -11z"/>
<path d="M1766 3581 c-3 -5 1 -14 9 -21 12 -10 15 -10 15 3 0 19 -16 31 -24
18z"/>
<path d="M1830 3535 c13 -14 26 -25 28 -25 3 0 -5 11 -18 25 -13 14 -26 25
-28 25 -3 0 5 -11 18 -25z"/>
<path d="M2137 3443 c-4 -3 -7 -11 -7 -17 0 -6 5 -5 12 2 6 6 9 14 7 17 -3 3
-9 2 -12 -2z"/>
<path d="M2095 3369 c-5 -5 -21 -18 -35 -28 -14 -11 -23 -22 -20 -25 3 -2 23
11 45 29 22 19 36 34 30 34 -5 0 -14 -4 -20 -10z"/>
<path d="M1670 3293 c0 -5 5 -15 10 -23 8 -12 10 -11 10 8 0 12 -4 22 -10 22
-5 0 -10 -3 -10 -7z"/>
<path d="M2036 3281 c-30 -33 -13 -43 17 -11 19 19 24 30 14 30 -7 0 -22 -9
-31 -19z"/>
<path d="M1262 3211 c-11 -6 -10 -10 4 -15 20 -8 32 0 18 14 -5 5 -15 5 -22 1z"/>
<path d="M1092 2955 c0 -16 2 -22 5 -12 2 9 2 23 0 30 -3 6 -5 -1 -5 -18z"/>
<path d="M1102 2890 c0 -14 2 -19 5 -12 2 6 2 18 0 25 -3 6 -5 1 -5 -13z"/>
<path d="M806 2631 c-4 -5 3 -7 14 -4 23 6 26 13 6 13 -8 0 -17 -4 -20 -9z"/>
<path d="M3586 2465 c4 -8 8 -15 10 -15 2 0 4 7 4 15 0 8 -4 15 -10 15 -5 0
-7 -7 -4 -15z"/>
<path d="M3600 2426 c0 -12 10 -16 43 -15 40 1 40 1 11 8 -17 4 -36 11 -42 15
-7 4 -12 1 -12 -8z"/>
<path d="M634 2275 c-10 -8 -14 -15 -8 -15 6 0 17 7 24 15 16 19 9 19 -16 0z"/>
<path d="M3460 2100 c0 -5 5 -10 11 -10 5 0 7 5 4 10 -3 6 -8 10 -11 10 -2 0
-4 -4 -4 -10z"/>
<path d="M3406 2028 c3 -4 9 -8 15 -8 5 0 9 4 9 8 0 5 -7 9 -15 9 -8 0 -12 -4
-9 -9z"/>
<path d="M3400 1966 c0 -2 13 -6 29 -8 17 -2 28 -1 25 4 -5 8 -54 12 -54 4z"/>
<path d="M367 1898 c-27 -21 -39 -67 -27 -102 13 -40 72 -82 96 -68 14 8 14
10 -7 15 -13 4 -36 18 -51 32 -43 40 -36 95 17 123 15 9 16 11 4 12 -8 0 -23
-6 -32 -12z"/>
<path d="M471 1243 c-10 -26 -10 -27 4 -9 8 11 15 23 15 28 0 15 -7 8 -19 -19z"/>
<path d="M397 1215 c12 -22 52 -61 56 -54 1 2 -13 20 -32 39 -19 19 -29 26
-24 15z"/>
</g>
</svg>
